<svg width="1280" height="800" viewBox="0 0 1280 800" fill="none" xmlns="http://www.w3.org/2000/svg">
  <rect width="1280" height="800" fill="#F8FAFC"/>
  <rect x="100" y="90" width="1080" height="620" rx="30" fill="#FFFFFF" stroke="#E2E8F0" stroke-width="2"/>
  <rect x="150" y="140" width="980" height="126" rx="22" fill="#F1F5F9"/>
  <rect x="188" y="186" width="280" height="24" rx="12" fill="#6366F1"/>
  <rect x="188" y="224" width="540" height="16" rx="8" fill="#94A3B8"/>
  <rect x="150" y="290" width="300" height="370" rx="22" fill="#ECFEFF"/>
  <rect x="480" y="290" width="300" height="370" rx="22" fill="#EEF2FF"/>
  <rect x="810" y="290" width="320" height="370" rx="22" fill="#F0FDFA"/>
  <rect x="196" y="344" width="208" height="208" rx="16" fill="#99F6E4" fill-opacity="0.45"/>
  <rect x="526" y="344" width="208" height="208" rx="16" fill="#A5B4FC" fill-opacity="0.35"/>
  <rect x="856" y="344" width="228" height="100" rx="16" fill="#5EEAD4" fill-opacity="0.35"/>
  <rect x="856" y="460" width="228" height="92" rx="16" fill="#C7D2FE" fill-opacity="0.45"/>
  <circle cx="630" cy="610" r="32" fill="#0D9488" fill-opacity="0.35"/>
</svg>
