<svg width="1600" height="900" viewBox="0 0 1600 900" fill="none" xmlns="http://www.w3.org/2000/svg">
  <rect width="1600" height="900" fill="url(#bg)"/>
  <circle cx="1180" cy="180" r="320" fill="#2DD4BF" fill-opacity="0.12"/>
  <circle cx="200" cy="720" r="280" fill="#6366F1" fill-opacity="0.08"/>
  <path d="M0 620C280 540 500 720 760 640C1020 560 1220 480 1600 560V900H0V620Z" fill="#0F766E" fill-opacity="0.28"/>
  <path d="M0 700C260 620 480 780 740 700C1000 620 1240 520 1600 620V900H0V700Z" fill="#115E59" fill-opacity="0.35"/>
  <rect x="200" y="160" width="520" height="288" rx="22" fill="#F8FAFC" fill-opacity="0.94"/>
  <rect x="232" y="196" width="200" height="12" rx="6" fill="#CBD5E1"/>
  <rect x="232" y="224" width="420" height="22" rx="11" fill="#0D9488" fill-opacity="0.85"/>
  <rect x="232" y="260" width="360" height="16" rx="8" fill="#94A3B8"/>
  <rect x="232" y="308" width="128" height="44" rx="22" fill="#0D9488"/>
  <rect x="380" y="308" width="140" height="44" rx="22" fill="#FFF" stroke="#5EEAD4" stroke-width="2"/>
  <defs>
    <linearGradient id="bg" x1="0" y1="0" x2="1600" y2="900" gradientUnits="userSpaceOnUse">
      <stop stop-color="#0F172A"/>
      <stop offset="0.5" stop-color="#1E293B"/>
      <stop offset="1" stop-color="#134E4A"/>
    </linearGradient>
  </defs>
</svg>
