<svg width="1200" height="675" viewBox="0 0 1200 675" fill="none" xmlns="http://www.w3.org/2000/svg">
  <rect width="1200" height="675" fill="#F8FAFC"/>
  <rect x="116" y="122" width="968" height="431" rx="28" fill="#FFFFFF" stroke="#E2E8F0" stroke-width="2"/>
  <rect x="168" y="178" width="262" height="318" rx="18" fill="#ECFEFF"/>
  <rect x="202" y="214" width="194" height="18" rx="9" fill="#0D9488"/>
  <rect x="202" y="248" width="132" height="132" rx="16" fill="#99F6E4" fill-opacity="0.5"/>
  <rect x="202" y="402" width="194" height="56" rx="12" fill="#E0F2FE"/>
  <rect x="466" y="178" width="566" height="138" rx="20" fill="#F1F5F9"/>
  <rect x="498" y="222" width="220" height="20" rx="10" fill="#0D9488" fill-opacity="0.86"/>
  <rect x="498" y="254" width="420" height="16" rx="8" fill="#78909C"/>
  <rect x="466" y="338" width="272" height="158" rx="20" fill="#F1F5F9"/>
  <rect x="760" y="338" width="272" height="158" rx="20" fill="#F1F5F9"/>
  <circle cx="604" cy="416" r="38" fill="#14B8A6" fill-opacity="0.35"/>
  <circle cx="898" cy="416" r="38" fill="#6366F1" fill-opacity="0.3"/>
</svg>
